<mxfile host="app.diagrams.net" modified="2021-03-06T04:15:10.217Z" agent="5.0 (Macintosh; Intel Mac OS X 10_13_6) AppleWebKit/537.36 (KHTML, like Gecko) Chrome/88.0.4324.192 Safari/537.36" etag="lcq5YQ4d2Pc22LTY5V7x" version="14.4.4" type="github">
  <diagram id="eSW5-LiPnJgQetWfRYt6" name="Page-1">
    <mxGraphModel dx="922" dy="521" grid="1" gridSize="10" guides="1" tooltips="1" connect="1" arrows="1" fold="1" page="1" pageScale="1" pageWidth="850" pageHeight="1100" math="0" shadow="0">
      <root>
        <mxCell id="0" />
        <mxCell id="1" parent="0" />
        <mxCell id="f7YVh8TKLrN4A6xFFIKB-2" style="edgeStyle=orthogonalEdgeStyle;rounded=0;orthogonalLoop=1;jettySize=auto;html=1;exitX=0.5;exitY=1;exitDx=0;exitDy=0;" edge="1" parent="1">
          <mxGeometry relative="1" as="geometry">
            <mxPoint x="425" y="100" as="sourcePoint" />
            <mxPoint x="425" y="100" as="targetPoint" />
          </mxGeometry>
        </mxCell>
        <mxCell id="f7YVh8TKLrN4A6xFFIKB-4" value="1" style="ellipse;whiteSpace=wrap;html=1;aspect=fixed;fillColor=#d5e8d4;strokeColor=#82b366;" vertex="1" parent="1">
          <mxGeometry x="320" y="40" width="40" height="40" as="geometry" />
        </mxCell>
        <mxCell id="f7YVh8TKLrN4A6xFFIKB-13" value="" style="endArrow=none;html=1;exitX=0.5;exitY=0;exitDx=0;exitDy=0;entryX=0.5;entryY=1;entryDx=0;entryDy=0;" edge="1" parent="1" source="f7YVh8TKLrN4A6xFFIKB-17" target="f7YVh8TKLrN4A6xFFIKB-4">
          <mxGeometry width="50" height="50" relative="1" as="geometry">
            <mxPoint x="305.6066017177982" y="114.39339828220182" as="sourcePoint" />
            <mxPoint x="330" y="90" as="targetPoint" />
          </mxGeometry>
        </mxCell>
        <mxCell id="f7YVh8TKLrN4A6xFFIKB-15" value="" style="endArrow=none;html=1;exitX=0.5;exitY=0;exitDx=0;exitDy=0;" edge="1" parent="1" source="f7YVh8TKLrN4A6xFFIKB-18">
          <mxGeometry width="50" height="50" relative="1" as="geometry">
            <mxPoint x="364.3933982822018" y="114.39339828220182" as="sourcePoint" />
            <mxPoint x="340" y="80" as="targetPoint" />
          </mxGeometry>
        </mxCell>
        <mxCell id="f7YVh8TKLrN4A6xFFIKB-17" value="2" style="ellipse;whiteSpace=wrap;html=1;aspect=fixed;fillColor=#d5e8d4;strokeColor=#82b366;" vertex="1" parent="1">
          <mxGeometry x="260" y="120" width="40" height="40" as="geometry" />
        </mxCell>
        <mxCell id="f7YVh8TKLrN4A6xFFIKB-18" value="3" style="ellipse;whiteSpace=wrap;html=1;aspect=fixed;fillColor=#d5e8d4;strokeColor=#82b366;" vertex="1" parent="1">
          <mxGeometry x="380" y="120" width="40" height="40" as="geometry" />
        </mxCell>
        <mxCell id="f7YVh8TKLrN4A6xFFIKB-19" value="" style="endArrow=none;html=1;exitX=0.5;exitY=0;exitDx=0;exitDy=0;entryX=0.5;entryY=1;entryDx=0;entryDy=0;" edge="1" parent="1" source="f7YVh8TKLrN4A6xFFIKB-22">
          <mxGeometry width="50" height="50" relative="1" as="geometry">
            <mxPoint x="240" y="200" as="sourcePoint" />
            <mxPoint x="280" y="160" as="targetPoint" />
          </mxGeometry>
        </mxCell>
        <mxCell id="f7YVh8TKLrN4A6xFFIKB-20" value="" style="endArrow=none;html=1;entryX=0.5;entryY=1;entryDx=0;entryDy=0;exitX=0.5;exitY=0;exitDx=0;exitDy=0;" edge="1" parent="1" source="f7YVh8TKLrN4A6xFFIKB-21" target="f7YVh8TKLrN4A6xFFIKB-17">
          <mxGeometry width="50" height="50" relative="1" as="geometry">
            <mxPoint x="350" y="200" as="sourcePoint" />
            <mxPoint x="310" y="170" as="targetPoint" />
          </mxGeometry>
        </mxCell>
        <mxCell id="f7YVh8TKLrN4A6xFFIKB-21" value="5" style="ellipse;whiteSpace=wrap;html=1;aspect=fixed;fillColor=#d5e8d4;strokeColor=#82b366;" vertex="1" parent="1">
          <mxGeometry x="290" y="200" width="40" height="40" as="geometry" />
        </mxCell>
        <mxCell id="f7YVh8TKLrN4A6xFFIKB-22" value="4" style="ellipse;whiteSpace=wrap;html=1;aspect=fixed;fillColor=#d5e8d4;strokeColor=#82b366;" vertex="1" parent="1">
          <mxGeometry x="230" y="200" width="40" height="40" as="geometry" />
        </mxCell>
        <mxCell id="f7YVh8TKLrN4A6xFFIKB-23" value="6" style="ellipse;whiteSpace=wrap;html=1;aspect=fixed;fillColor=#d5e8d4;strokeColor=#82b366;" vertex="1" parent="1">
          <mxGeometry x="350" y="200" width="40" height="40" as="geometry" />
        </mxCell>
        <mxCell id="f7YVh8TKLrN4A6xFFIKB-24" value="7" style="ellipse;whiteSpace=wrap;html=1;aspect=fixed;fillColor=#d5e8d4;strokeColor=#82b366;" vertex="1" parent="1">
          <mxGeometry x="410" y="200" width="40" height="40" as="geometry" />
        </mxCell>
        <mxCell id="f7YVh8TKLrN4A6xFFIKB-25" value="" style="endArrow=none;html=1;entryX=0.5;entryY=1;entryDx=0;entryDy=0;exitX=0.5;exitY=0;exitDx=0;exitDy=0;" edge="1" parent="1" source="f7YVh8TKLrN4A6xFFIKB-23" target="f7YVh8TKLrN4A6xFFIKB-18">
          <mxGeometry width="50" height="50" relative="1" as="geometry">
            <mxPoint x="320" y="210" as="sourcePoint" />
            <mxPoint x="290" y="170" as="targetPoint" />
          </mxGeometry>
        </mxCell>
        <mxCell id="f7YVh8TKLrN4A6xFFIKB-27" value="" style="endArrow=none;html=1;exitX=0.5;exitY=0;exitDx=0;exitDy=0;" edge="1" parent="1" source="f7YVh8TKLrN4A6xFFIKB-24">
          <mxGeometry width="50" height="50" relative="1" as="geometry">
            <mxPoint x="380" y="210" as="sourcePoint" />
            <mxPoint x="400" y="160" as="targetPoint" />
          </mxGeometry>
        </mxCell>
      </root>
    </mxGraphModel>
  </diagram>
</mxfile>
